<?xml version="1.0" encoding="utf-8"?>
<!-- Generator: Adobe Illustrator 15.0.1, SVG Export Plug-In . SVG Version: 6.00 Build 0)  -->
<!DOCTYPE svg PUBLIC "-//W3C//DTD SVG 1.1//EN" "http://www.w3.org/Graphics/SVG/1.1/DTD/svg11.dtd">
<svg version="1.1" id="Слой_1" xmlns="http://www.w3.org/2000/svg" xmlns:xlink="http://www.w3.org/1999/xlink" x="0px" y="0px"
	 width="62px" height="62px" viewBox="0 0 62 62" enable-background="new 0 0 62 62" xml:space="preserve">
<path fill="#0D0F0F" d="M49.723,7.294c-2.092-2.091-4.465-3.731-6.994-4.924c-8.754-4.124-19.41-2.867-27.001,3.77
	c-0.422,0.37-0.836,0.754-1.238,1.155c-9.729,9.729-9.729,25.503,0,35.233C15.404,43.441,34.369,62,34.369,62L35,49.657v-0.002
	c5.379-0.626,10.596-3.001,14.723-7.128C59.451,32.798,59.451,17.023,49.723,7.294z M21.817,31.155
	c-0.023,0.184-0.06,0.334-0.111,0.458c-0.07,0.164-0.158,0.28-0.271,0.361c-0.119,0.088-0.257,0.133-0.409,0.133h-7.462
	c-0.345,0-0.642-0.105-0.883-0.314c-0.257-0.222-0.388-0.563-0.388-1.013V17.828c0-0.45,0.131-0.791,0.389-1.013
	c0.241-0.209,0.538-0.315,0.882-0.315h7.417c0.146,0,0.285,0.044,0.402,0.128c0.112,0.081,0.202,0.204,0.268,0.366
	c0.051,0.133,0.087,0.282,0.109,0.461c0.021,0.159,0.032,0.365,0.032,0.614c0,0.236-0.01,0.432-0.032,0.595
	c-0.022,0.178-0.058,0.327-0.109,0.453c-0.067,0.159-0.153,0.278-0.259,0.358c-0.111,0.09-0.256,0.141-0.411,0.141h-4.929v2.878
	h4.114c0.149,0,0.292,0.047,0.413,0.137c0.11,0.082,0.199,0.197,0.264,0.344c0.053,0.125,0.09,0.274,0.114,0.458
	c0.021,0.165,0.032,0.364,0.032,0.596c0,0.241-0.011,0.441-0.032,0.6c-0.024,0.182-0.061,0.329-0.113,0.449
	c-0.065,0.151-0.158,0.269-0.275,0.349c-0.122,0.082-0.26,0.124-0.402,0.124h-4.114v3.44h4.975c0.149,0,0.292,0.047,0.413,0.137
	c0.109,0.078,0.197,0.195,0.265,0.354c0.053,0.13,0.089,0.28,0.113,0.463c0.021,0.161,0.032,0.363,0.032,0.604
	C21.849,30.791,21.838,30.993,21.817,31.155z M36.764,30.675c0,0.228-0.042,0.438-0.124,0.624c-0.081,0.185-0.196,0.344-0.342,0.473
	c-0.145,0.13-0.318,0.225-0.514,0.28c-0.165,0.052-0.348,0.079-0.532,0.079h-1.285c-0.297,0-0.563-0.031-0.793-0.094
	c-0.249-0.069-0.479-0.193-0.685-0.369c-0.193-0.166-0.378-0.388-0.55-0.66c-0.159-0.249-0.336-0.571-0.536-0.967l-3.693-6.938
	c-0.163-0.314-0.327-0.645-0.492-0.993c0.01,0.463,0.016,0.938,0.016,1.424v7.773c0,0.151-0.043,0.292-0.127,0.417
	c-0.088,0.126-0.218,0.224-0.388,0.293c-0.134,0.054-0.301,0.094-0.512,0.12c-0.187,0.026-0.429,0.039-0.726,0.039
	c-0.29,0-0.528-0.013-0.719-0.039c-0.209-0.027-0.376-0.067-0.507-0.122c-0.172-0.073-0.3-0.175-0.379-0.305
	c-0.075-0.12-0.114-0.256-0.114-0.403V17.956c0-0.474,0.151-0.842,0.448-1.096c0.282-0.239,0.624-0.36,1.019-0.36h1.619
	c0.311,0,0.588,0.029,0.823,0.086c0.248,0.061,0.471,0.165,0.667,0.309c0.188,0.137,0.368,0.329,0.53,0.568
	c0.148,0.219,0.3,0.487,0.452,0.797l3.389,6.393c0.166,0.324,0.327,0.644,0.48,0.964l0.118,0.247
	c-0.01-0.547-0.015-1.071-0.015-1.572v-6.968c0-0.156,0.047-0.3,0.141-0.428c0.093-0.121,0.221-0.214,0.386-0.285
	c0.139-0.06,0.313-0.101,0.531-0.125c0.361-0.04,1.028-0.042,1.412,0c0.222,0.024,0.395,0.067,0.529,0.13
	c0.159,0.076,0.278,0.176,0.355,0.298c0.079,0.13,0.116,0.265,0.116,0.409V30.675z M42.638,26.401
	c0.209,0.595,0.501,1.098,0.869,1.495c0.365,0.393,0.812,0.692,1.324,0.891c0.773,0.302,1.738,0.417,2.668,0.204
	c0.221-0.052,0.431-0.123,0.627-0.212v-2.837h-2.438c-0.136,0-0.472-0.047-0.664-0.48c-0.1-0.225-0.146-0.553-0.146-1.032
	c0-0.233,0.011-0.429,0.031-0.587c0.023-0.186,0.062-0.335,0.115-0.456c0.066-0.147,0.147-0.257,0.249-0.337
	c0.118-0.093,0.262-0.143,0.415-0.143h5.017c0.178,0,0.34,0.032,0.481,0.096c0.143,0.063,0.272,0.159,0.382,0.285
	c0.109,0.126,0.189,0.273,0.241,0.437c0.05,0.155,0.075,0.331,0.075,0.521v5.914c0,0.283-0.053,0.54-0.156,0.761
	c-0.122,0.262-0.356,0.462-0.696,0.596c-0.256,0.103-0.574,0.21-0.956,0.321c-0.378,0.111-0.77,0.205-1.175,0.285
	c-0.408,0.077-0.817,0.138-1.231,0.177c-0.412,0.04-0.829,0.06-1.246,0.06c-1.221,0-2.336-0.18-3.315-0.534
	c-0.984-0.358-1.831-0.885-2.518-1.567c-0.688-0.684-1.219-1.526-1.579-2.503c-0.359-0.966-0.542-2.074-0.542-3.291
	c0-1.254,0.194-2.402,0.577-3.413c0.385-1.014,0.938-1.889,1.646-2.599c0.707-0.711,1.572-1.263,2.573-1.642
	c0.991-0.375,2.107-0.564,3.318-0.564c0.664,0,1.275,0.046,1.819,0.139c0.544,0.09,1.027,0.202,1.436,0.333
	c0.416,0.133,0.77,0.28,1.05,0.438c0.295,0.165,0.502,0.31,0.632,0.443c0.152,0.159,0.259,0.37,0.32,0.629
	c0.053,0.224,0.078,0.536,0.078,0.954c0,0.239-0.011,0.444-0.031,0.618c-0.023,0.195-0.056,0.348-0.1,0.468
	c-0.06,0.165-0.141,0.285-0.248,0.369c-0.261,0.2-0.538,0.214-1.089-0.125c-0.204-0.128-0.477-0.266-0.837-0.424
	c-0.346-0.151-0.771-0.296-1.263-0.43c-0.977-0.263-2.443-0.295-3.48,0.149c-0.528,0.226-0.986,0.55-1.362,0.964
	c-0.376,0.415-0.671,0.924-0.876,1.514c-0.207,0.598-0.313,1.269-0.313,1.995C42.32,25.086,42.427,25.8,42.638,26.401z"/>
</svg>
